<mxfile host="app.diagrams.net" modified="2023-08-19T14:54:22.877Z" agent="Mozilla/5.0 (Macintosh; Intel Mac OS X 10.15; rv:109.0) Gecko/20100101 Firefox/116.0" etag="Zq8Nl3Vc725ltie6lA4w" version="21.6.8" type="device">
  <diagram id="C5RBs43oDa-KdzZeNtuy" name="Page-1">
    <mxGraphModel dx="1541" dy="462" grid="1" gridSize="10" guides="1" tooltips="1" connect="1" arrows="1" fold="1" page="1" pageScale="1" pageWidth="827" pageHeight="1169" math="0" shadow="0">
      <root>
        <mxCell id="WIyWlLk6GJQsqaUBKTNV-0" />
        <mxCell id="WIyWlLk6GJQsqaUBKTNV-1" parent="WIyWlLk6GJQsqaUBKTNV-0" />
        <mxCell id="WIyWlLk6GJQsqaUBKTNV-2" value="" style="rounded=0;html=1;jettySize=auto;orthogonalLoop=1;fontSize=11;endArrow=block;endFill=0;endSize=8;strokeWidth=1;shadow=0;labelBackgroundColor=none;edgeStyle=orthogonalEdgeStyle;" parent="WIyWlLk6GJQsqaUBKTNV-1" source="WIyWlLk6GJQsqaUBKTNV-3" target="WIyWlLk6GJQsqaUBKTNV-6" edge="1">
          <mxGeometry relative="1" as="geometry" />
        </mxCell>
        <mxCell id="WIyWlLk6GJQsqaUBKTNV-3" value="Sync module is called" style="rounded=1;whiteSpace=wrap;html=1;fontSize=12;glass=0;strokeWidth=1;shadow=0;" parent="WIyWlLk6GJQsqaUBKTNV-1" vertex="1">
          <mxGeometry x="145" y="100" width="150" height="40" as="geometry" />
        </mxCell>
        <mxCell id="nYeWPk7ZotNxON7ShalI-1" style="edgeStyle=orthogonalEdgeStyle;rounded=0;orthogonalLoop=1;jettySize=auto;html=1;exitX=0;exitY=0.5;exitDx=0;exitDy=0;entryX=1;entryY=0.5;entryDx=0;entryDy=0;" edge="1" parent="WIyWlLk6GJQsqaUBKTNV-1" source="WIyWlLk6GJQsqaUBKTNV-6" target="nYeWPk7ZotNxON7ShalI-0">
          <mxGeometry relative="1" as="geometry" />
        </mxCell>
        <mxCell id="nYeWPk7ZotNxON7ShalI-7" style="edgeStyle=orthogonalEdgeStyle;rounded=0;orthogonalLoop=1;jettySize=auto;html=1;exitX=1;exitY=0.5;exitDx=0;exitDy=0;entryX=0;entryY=0.5;entryDx=0;entryDy=0;" edge="1" parent="WIyWlLk6GJQsqaUBKTNV-1" source="WIyWlLk6GJQsqaUBKTNV-6" target="nYeWPk7ZotNxON7ShalI-6">
          <mxGeometry relative="1" as="geometry" />
        </mxCell>
        <mxCell id="WIyWlLk6GJQsqaUBKTNV-6" value="Is there an onset?" style="rhombus;whiteSpace=wrap;html=1;shadow=0;fontFamily=Helvetica;fontSize=12;align=center;strokeWidth=1;spacing=6;spacingTop=-4;" parent="WIyWlLk6GJQsqaUBKTNV-1" vertex="1">
          <mxGeometry x="170" y="170" width="100" height="80" as="geometry" />
        </mxCell>
        <mxCell id="nYeWPk7ZotNxON7ShalI-4" style="edgeStyle=orthogonalEdgeStyle;rounded=0;orthogonalLoop=1;jettySize=auto;html=1;exitX=0.5;exitY=1;exitDx=0;exitDy=0;" edge="1" parent="WIyWlLk6GJQsqaUBKTNV-1" source="nYeWPk7ZotNxON7ShalI-0" target="nYeWPk7ZotNxON7ShalI-3">
          <mxGeometry relative="1" as="geometry" />
        </mxCell>
        <mxCell id="nYeWPk7ZotNxON7ShalI-5" style="edgeStyle=orthogonalEdgeStyle;rounded=0;orthogonalLoop=1;jettySize=auto;html=1;exitX=0;exitY=0.5;exitDx=0;exitDy=0;" edge="1" parent="WIyWlLk6GJQsqaUBKTNV-1" source="nYeWPk7ZotNxON7ShalI-0" target="nYeWPk7ZotNxON7ShalI-2">
          <mxGeometry relative="1" as="geometry" />
        </mxCell>
        <mxCell id="nYeWPk7ZotNxON7ShalI-0" value="&lt;div&gt;Is layer of this onset higher&amp;nbsp;&lt;/div&gt;&lt;div&gt;than the last synced layer?&lt;/div&gt;" style="rhombus;whiteSpace=wrap;html=1;shadow=0;fontFamily=Helvetica;fontSize=12;align=center;strokeWidth=1;spacing=6;spacingTop=-4;" vertex="1" parent="WIyWlLk6GJQsqaUBKTNV-1">
          <mxGeometry x="-70" y="140" width="200" height="140" as="geometry" />
        </mxCell>
        <mxCell id="nYeWPk7ZotNxON7ShalI-2" value="Do nothing" style="rounded=1;whiteSpace=wrap;html=1;fontSize=12;glass=0;strokeWidth=1;shadow=0;" vertex="1" parent="WIyWlLk6GJQsqaUBKTNV-1">
          <mxGeometry x="-130" y="320" width="80" height="40" as="geometry" />
        </mxCell>
        <mxCell id="nYeWPk7ZotNxON7ShalI-3" value="&lt;div&gt;Decrease last synced layer&lt;/div&gt;" style="rounded=1;whiteSpace=wrap;html=1;fontSize=12;glass=0;strokeWidth=1;shadow=0;" vertex="1" parent="WIyWlLk6GJQsqaUBKTNV-1">
          <mxGeometry x="-30" y="320" width="120" height="40" as="geometry" />
        </mxCell>
        <mxCell id="nYeWPk7ZotNxON7ShalI-11" style="edgeStyle=orthogonalEdgeStyle;rounded=0;orthogonalLoop=1;jettySize=auto;html=1;exitX=0.5;exitY=1;exitDx=0;exitDy=0;entryX=0.5;entryY=0;entryDx=0;entryDy=0;" edge="1" parent="WIyWlLk6GJQsqaUBKTNV-1" source="nYeWPk7ZotNxON7ShalI-6" target="nYeWPk7ZotNxON7ShalI-8">
          <mxGeometry relative="1" as="geometry" />
        </mxCell>
        <mxCell id="nYeWPk7ZotNxON7ShalI-15" style="edgeStyle=orthogonalEdgeStyle;rounded=0;orthogonalLoop=1;jettySize=auto;html=1;exitX=1;exitY=0.5;exitDx=0;exitDy=0;entryX=0;entryY=0.5;entryDx=0;entryDy=0;" edge="1" parent="WIyWlLk6GJQsqaUBKTNV-1" source="nYeWPk7ZotNxON7ShalI-6" target="nYeWPk7ZotNxON7ShalI-14">
          <mxGeometry relative="1" as="geometry" />
        </mxCell>
        <mxCell id="nYeWPk7ZotNxON7ShalI-6" value="&lt;div&gt;Is layer of this onset higher&amp;nbsp;&lt;/div&gt;&lt;div&gt;than the last synced layer?&lt;/div&gt;" style="rhombus;whiteSpace=wrap;html=1;shadow=0;fontFamily=Helvetica;fontSize=12;align=center;strokeWidth=1;spacing=6;spacingTop=-4;" vertex="1" parent="WIyWlLk6GJQsqaUBKTNV-1">
          <mxGeometry x="310" y="140" width="200" height="140" as="geometry" />
        </mxCell>
        <mxCell id="nYeWPk7ZotNxON7ShalI-10" style="edgeStyle=orthogonalEdgeStyle;rounded=0;orthogonalLoop=1;jettySize=auto;html=1;exitX=0;exitY=0.5;exitDx=0;exitDy=0;entryX=0.5;entryY=0;entryDx=0;entryDy=0;" edge="1" parent="WIyWlLk6GJQsqaUBKTNV-1" source="nYeWPk7ZotNxON7ShalI-8" target="nYeWPk7ZotNxON7ShalI-9">
          <mxGeometry relative="1" as="geometry" />
        </mxCell>
        <mxCell id="nYeWPk7ZotNxON7ShalI-13" style="edgeStyle=orthogonalEdgeStyle;rounded=0;orthogonalLoop=1;jettySize=auto;html=1;exitX=0.5;exitY=1;exitDx=0;exitDy=0;entryX=0.5;entryY=0;entryDx=0;entryDy=0;" edge="1" parent="WIyWlLk6GJQsqaUBKTNV-1" source="nYeWPk7ZotNxON7ShalI-8" target="nYeWPk7ZotNxON7ShalI-12">
          <mxGeometry relative="1" as="geometry" />
        </mxCell>
        <mxCell id="nYeWPk7ZotNxON7ShalI-8" value="&lt;div&gt;Is accuracy higher than&amp;nbsp;&lt;/div&gt;&lt;div&gt;last synced accuracy?&lt;/div&gt;" style="rhombus;whiteSpace=wrap;html=1;shadow=0;fontFamily=Helvetica;fontSize=12;align=center;strokeWidth=1;spacing=6;spacingTop=-4;" vertex="1" parent="WIyWlLk6GJQsqaUBKTNV-1">
          <mxGeometry x="312.5" y="320" width="195" height="80" as="geometry" />
        </mxCell>
        <mxCell id="nYeWPk7ZotNxON7ShalI-9" value="Update parameters" style="rounded=1;whiteSpace=wrap;html=1;fontSize=12;glass=0;strokeWidth=1;shadow=0;" vertex="1" parent="WIyWlLk6GJQsqaUBKTNV-1">
          <mxGeometry x="210" y="430" width="120" height="40" as="geometry" />
        </mxCell>
        <mxCell id="nYeWPk7ZotNxON7ShalI-12" value="Sync to this onset" style="rounded=1;whiteSpace=wrap;html=1;fontSize=12;glass=0;strokeWidth=1;shadow=0;" vertex="1" parent="WIyWlLk6GJQsqaUBKTNV-1">
          <mxGeometry x="350" y="430" width="120" height="40" as="geometry" />
        </mxCell>
        <mxCell id="nYeWPk7ZotNxON7ShalI-17" style="edgeStyle=orthogonalEdgeStyle;rounded=0;orthogonalLoop=1;jettySize=auto;html=1;exitX=0.5;exitY=1;exitDx=0;exitDy=0;entryX=0.5;entryY=0;entryDx=0;entryDy=0;" edge="1" parent="WIyWlLk6GJQsqaUBKTNV-1" source="nYeWPk7ZotNxON7ShalI-14" target="nYeWPk7ZotNxON7ShalI-16">
          <mxGeometry relative="1" as="geometry" />
        </mxCell>
        <mxCell id="nYeWPk7ZotNxON7ShalI-21" style="edgeStyle=orthogonalEdgeStyle;rounded=0;orthogonalLoop=1;jettySize=auto;html=1;exitX=1;exitY=0.5;exitDx=0;exitDy=0;entryX=0;entryY=0.5;entryDx=0;entryDy=0;" edge="1" parent="WIyWlLk6GJQsqaUBKTNV-1" source="nYeWPk7ZotNxON7ShalI-14" target="nYeWPk7ZotNxON7ShalI-20">
          <mxGeometry relative="1" as="geometry" />
        </mxCell>
        <mxCell id="nYeWPk7ZotNxON7ShalI-14" value="&lt;div&gt;Is accuracy higher&amp;nbsp;&lt;/div&gt;&lt;div&gt;than threshold?&lt;/div&gt;" style="rhombus;whiteSpace=wrap;html=1;shadow=0;fontFamily=Helvetica;fontSize=12;align=center;strokeWidth=1;spacing=6;spacingTop=-4;" vertex="1" parent="WIyWlLk6GJQsqaUBKTNV-1">
          <mxGeometry x="550" y="170" width="160" height="80" as="geometry" />
        </mxCell>
        <mxCell id="nYeWPk7ZotNxON7ShalI-19" style="edgeStyle=orthogonalEdgeStyle;rounded=0;orthogonalLoop=1;jettySize=auto;html=1;exitX=0.5;exitY=1;exitDx=0;exitDy=0;entryX=0.5;entryY=0;entryDx=0;entryDy=0;" edge="1" parent="WIyWlLk6GJQsqaUBKTNV-1" source="nYeWPk7ZotNxON7ShalI-16" target="nYeWPk7ZotNxON7ShalI-18">
          <mxGeometry relative="1" as="geometry" />
        </mxCell>
        <mxCell id="nYeWPk7ZotNxON7ShalI-23" style="edgeStyle=orthogonalEdgeStyle;rounded=0;orthogonalLoop=1;jettySize=auto;html=1;exitX=1;exitY=0.5;exitDx=0;exitDy=0;" edge="1" parent="WIyWlLk6GJQsqaUBKTNV-1" source="nYeWPk7ZotNxON7ShalI-16" target="nYeWPk7ZotNxON7ShalI-22">
          <mxGeometry relative="1" as="geometry" />
        </mxCell>
        <mxCell id="nYeWPk7ZotNxON7ShalI-16" value="&lt;div&gt;Is accuracy higher&amp;nbsp;&lt;/div&gt;&lt;div&gt;than headroom?&lt;/div&gt;" style="rhombus;whiteSpace=wrap;html=1;shadow=0;fontFamily=Helvetica;fontSize=12;align=center;strokeWidth=1;spacing=6;spacingTop=-4;" vertex="1" parent="WIyWlLk6GJQsqaUBKTNV-1">
          <mxGeometry x="560" y="290" width="140" height="80" as="geometry" />
        </mxCell>
        <mxCell id="nYeWPk7ZotNxON7ShalI-18" value="&lt;div&gt;Sync to this onset and update parameters&lt;br&gt;&lt;/div&gt;" style="rounded=1;whiteSpace=wrap;html=1;fontSize=12;glass=0;strokeWidth=1;shadow=0;" vertex="1" parent="WIyWlLk6GJQsqaUBKTNV-1">
          <mxGeometry x="560" y="400" width="140" height="40" as="geometry" />
        </mxCell>
        <mxCell id="nYeWPk7ZotNxON7ShalI-20" value="Update parameters" style="rounded=1;whiteSpace=wrap;html=1;fontSize=12;glass=0;strokeWidth=1;shadow=0;" vertex="1" parent="WIyWlLk6GJQsqaUBKTNV-1">
          <mxGeometry x="730" y="190" width="140" height="40" as="geometry" />
        </mxCell>
        <mxCell id="nYeWPk7ZotNxON7ShalI-22" value="Sync to this onset" style="rounded=1;whiteSpace=wrap;html=1;fontSize=12;glass=0;strokeWidth=1;shadow=0;" vertex="1" parent="WIyWlLk6GJQsqaUBKTNV-1">
          <mxGeometry x="730" y="310" width="140" height="40" as="geometry" />
        </mxCell>
      </root>
    </mxGraphModel>
  </diagram>
</mxfile>
